<svg height="75" viewBox="0 0 484 75" width="484" xmlns="http://www.w3.org/2000/svg"><g fill="none" fill-rule="evenodd" stroke="#c8c8c8"><path d="m10.2555408.5h463.4889182c3.424477 0 4.673302.33888568 5.927124 1.00943741 1.215281.6499392 2.16904 1.60369856 2.81898 2.81897921.670551 1.25382273 1.009437 2.50264783 1.009437 5.92712418v54.4889184c0 3.4244763-.338886 4.6733014-1.009437 5.9271242-.64994 1.2152806-1.603699 2.16904-2.81898 2.8189792-1.253822.6705517-2.502647 1.0094374-5.927124 1.0094374h-463.4889182c-3.42447635 0-4.67330145-.3388857-5.92712418-1.0094374-1.21528065-.6499392-2.16904001-1.6036986-2.81897921-2.8189792-.67055173-1.2538228-1.00943741-2.5026479-1.00943741-5.9271242v-54.4889184c0-3.42447635.33888568-4.67330145 1.00943741-5.92712418.6499392-1.21528065 1.60369856-2.16904001 2.81897921-2.81897921 1.25382273-.67055173 2.50264783-1.00943741 5.92712418-1.00943741z"/><path d="m81.135545 0v75"/><path d="m161.808436 0v75"/><path d="m242.481327 0v75"/><path d="m323.154218 0v75"/><path d="m403.827109 0v75"/></g></svg>