<svg height="20" viewBox="0 0 1474 1024" width="20" xmlns="http://www.w3.org/2000/svg"><path d="m0 810.200164c0 117.628256 329.995399 213.197263 737.415179 213.197262 407.423993 0 737.415179-95.569007 737.415178-213.197262s-329.995399-213.197263-737.415178-213.197263c-407.423993 0-737.415179 95.569007-737.415179 213.197263z" fill="#dadfea" opacity=".477"/><path d="m255.836715 752.509014c0 77.420166 216.623083 140.462843 484.085675 140.462843s484.085675-62.671863 484.085675-140.462843c0-77.415952-216.623083-140.458629-484.081461-140.458629-267.466806 0-484.089889 63.038463-484.089889 140.458629z" fill="#c9d0df" opacity=".314"/><path d="m336.101197 215.017625 356.167318-74.512644v632.070153l-331.807334-91.397344z" fill="#c1c7d0"/><path d="m692.268515 267.942966v-132.452408l421.380102 44.274407-349.985672 101.20286-71.39443-13.020646z" fill="#8693a5"/><path d="m752.462662 275.949187-2.224887 541.776825-419.155215-108.21041v-337.175716z" fill="#bbc4d2"/><path d="m469.442717 456.910872c-8.532947-1.10823-17.065894 4.432919-18.174124 12.923728-1.116657 8.495023 4.449774 16.990046 12.978507 18.098275l137.618527 24.74344c8.532947 1.10823 17.065894-4.432919 18.174124-12.927941 1.112443-8.490809-4.449774-16.985832-12.978507-18.094062l-137.622741-24.74344z" fill="#b3bccb"/><path d="m747.448239 817.726012 376.233438-130.73739v-330.897153l-376.237652-80.142282z" fill="#d3d8dd"/><path d="m333.87631 212.531482-113.153199 161.312731 412.446844 82.695845 113.153199-179.482641zm530.024534 232.51754 360.111435-119.414907-109.103736-144.996893-367.477159 96.79101 116.46946 167.616577z" fill="#e2e7f1"/><path d="m877.873808 538.730247 135.444206-37.039311v95.71649l-135.444206 44.742139z" fill="#fff"/><path d="m895.685545 569.259235v-6.270136l51.935098-15.864961v6.270136l-51.930884 15.864961zm0 21.393468v-6.270136l43.343157-12.911086v6.270136l-43.338943 12.911086zm0 21.397682v-6.270136l72.485805-22.501698v6.270136l-72.481591 22.501698zm-268.629815-596.143286c0 8.85741 7.096041 15.864961 16.063009 15.864961s16.067223-7.007551 16.067224-15.864961c0-8.848982-7.100255-15.860747-16.067224-15.860747-8.596154 0-16.063009 7.007551-16.063009 15.860747zm75.844205 0c0 8.85741 7.096041 15.864961 16.063009 15.864961s16.067223-7.007551 16.067223-15.864961c0-8.848982-7.100255-15.860747-16.067223-15.860747-8.59194 0-16.063009 7.007551-16.063009 15.860747zm75.848418 0c0 8.85741 7.096041 15.864961 16.433824 15.864961 8.966969 0 16.067223-7.007551 16.067223-15.864961 0-8.848982-7.100255-15.860747-16.067223-15.860747-4.483484 0-8.59194 1.845645-11.579525 4.795305-2.991799 2.949661-4.858513 7.007551-4.858513 11.065442z" fill="#727f96"/><path d="m1055.2959 361.556769 3.223558-13.340894s-21.481958-18.161482-20.049265-38.914452c1.432692-20.75297 14.676669-33.352235 14.676669-33.352236h39.740357l-6.084729 69.670987.716347 11.861849zm49.048644 596.282341.716346 10.378592h13.60215l-2.149039-13.340894z" fill="#f6d9c2"/><path d="m1073.516376 970.429948s1.369485-11.225566 7.867166-12.026188c5.815045-.800622 28.388377.800622 35.227377 1.601244.68685 0 2.052121.800622 2.052121 2.40608v8.419175c0 1.601244-.682636 2.401867-2.052121 2.401866h-43.094543z" fill="#16175d"/><path d="m1028.369712 961.5304.792194 11.701725h14.255289l-1.584389-15.047483z" fill="#f6d0c3"/><path d="m998.270531 985.477431s1.365272-11.225566 7.867166-12.026188c5.815045-.800622 28.388377.800622 35.227377 1.601244.682636 0 2.052121.804836 2.052121 2.406081v8.419174c0 1.601244-.682636 2.401867-2.052121 2.401867h-43.094543z" fill="#16175d"/><path d="m1100.126529 953.166005h16.475962l6.514537-166.702182c0-8.465526 1.533824-16.560238 3.446889-24.288349 8.04836-32.383061 26.058146-124.382979 21.456675-165.968981l-14.558683-24.288349-90.044714 4.786878s11.495249 101.565246 24.524322 141.680631c2.296522 7.723897 4.980713 15.822823 5.747625 23.550934z" fill="#2964c2"/><path d="m983.218834 566.90372 42.664735 396.295345h16.99426l8.313829-162.168132c.724774-9.497908 2.170108-18.995815 4.702602-28.127122 9.396776-35.792026 34.709079-124.913917 32.538971-178.60617z" fill="#2c6dd2"/><path d="m1171.276559 438.585052s13.960323 45.799803 12.493921 64.639707c-1.47483 16.615017-11.760719 59.831761-38.585776 65.368696l-.737416-102.67769 24.98784-26.959899zm-210.56785 3.324689s-13.964537 45.799803-12.49392 64.635494c1.470617 16.619231 11.756505 59.835975 38.585776 65.372909l.733201-102.67769-24.98784-26.959899zm86.357638-150.693952s6.982268-7.015979 12.49392-4.803734c6.249067 2.220673 6.982268 15.148615 4.045249 31.397032-3.312048 16.619231-18.009786-11.082297-18.009786-11.082297l1.470617-15.506788z" fill="#f6d9c2"/><path d="m1053.989622 288.759143c-4.845871.758484-10.437585-.75427-13.420956-4.900651-4.845871-6.404978-10.441799-16.210493-4.845872-23.373954 8.575085-12.064112 32.808655-21.111143 54.063068-8.667789 21.625227 12.064112 23.862755 39.584447 23.862755 39.584447s-1.491686 49.76499-30.204526 49.76499h-7.079186c-3.358399 0-6.341771-2.262811-7.087613-4.904864-4.100028-10.555572-5.591714-21.865413-4.845871-33.175256v-7.163462c-.745843-7.163462-5.595928-7.917732-10.441799-7.163461z" fill="#42526e"/><path d="m1173.842764 443.291867c-20.268383-40.359786-55.179724-67.993893-72.072852-79.994798-4.504553-3.26991-8.25905-5.815045-9.759164-6.181646-5.629638-2.178535-33.031986 0-43.916234 2.182749-2.254384.362387-6.00888 2.545136-10.513433 5.452658-17.268157 9.818156-62.688718 38.177037-84.461428 81.810947l26.277263 41.813548v-.362387l-1.125085 85.080856c0 4.727885 2.254384 9.455769 6.379695 10.184757 84.836456 39.630799 144.524947 19.269712 159.534507 12.359079 2.254384-.724774 4.883795-3.26991 4.883795-5.452659 4.504553-27.996494 3.750283-71.630404 1.125085-109.445054z" fill="#f2f5fc"/></svg>