<svg height="16" viewBox="0 0 16 16" width="16" xmlns="http://www.w3.org/2000/svg"><g fill="#262626" transform="translate(-3682.063 -1252.341)"><path d="m3697.563 1258.113a.5.5 0 0 1 -.5-.5v-1.772a2.5 2.5 0 0 0 -2.5-2.5h-1.772a.5.5 0 0 1 0-1h1.772a3.5 3.5 0 0 1 3.5 3.5v1.772a.5.5 0 0 1 -.5.5z"/><path d="m3682.563 1258.113a.5.5 0 0 1 -.5-.5v-1.772a3.5 3.5 0 0 1 3.5-3.5h1.774a.5.5 0 0 1 0 1h-1.774a2.5 2.5 0 0 0 -2.5 2.5v1.772a.5.5 0 0 1 -.5.5z"/><path d="m3687.337 1268.341h-1.774a3.5 3.5 0 0 1 -3.5-3.5v-1.774a.5.5 0 1 1 1 0v1.774a2.5 2.5 0 0 0 2.5 2.5h1.774a.5.5 0 0 1 0 1z"/><path d="m3694.563 1268.341h-1.772a.5.5 0 0 1 0-1h1.772a2.5 2.5 0 0 0 2.5-2.5v-1.774a.5.5 0 1 1 1 0v1.774a3.5 3.5 0 0 1 -3.5 3.5z"/><path d="m3695.313 1260.841h-10.5a.5.5 0 0 1 0-1h10.5a.5.5 0 0 1 0 1z"/></g></svg>