<svg height="239" viewBox="0 0 524 239" width="524" xmlns="http://www.w3.org/2000/svg" xmlns:xlink="http://www.w3.org/1999/xlink"><defs><linearGradient id="a" x1="0%" x2="99.431818%" y1="49.997733%" y2="49.997733%"><stop offset="0" stop-color="#628fff"/><stop offset="1" stop-color="#0066f3"/></linearGradient><path id="b" d="m524 28.58v209.6h-524v-209.6c0-15.79 12.8-28.58 28.58-28.58h466.84c4.45 0 8.67 1.02 12.42 2.84 9.57 4.61 16.16 14.41 16.16 25.74z"/><linearGradient id="c" x1="71.27586%" x2="31.14364%" y1="13.986595%" y2="83.581841%"><stop offset="0" stop-color="#ffeeb7"/><stop offset="1" stop-color="#ffb504"/></linearGradient><linearGradient id="d"><stop offset="0" stop-color="#fff" stop-opacity="0"/><stop offset="1" stop-color="#fff"/></linearGradient><linearGradient id="e" x1="17.167602%" x2="85.516855%" xlink:href="#d" y1="64.853032%" y2="44.723304%"/><linearGradient id="f" x1="100.231149%" x2=".48373%" xlink:href="#d" y1="32.965817%" y2="66.847987%"/><linearGradient id="g" x1="100.309847%" x2=".553161%" xlink:href="#d" y1="32.731541%" y2="66.621449%"/><linearGradient id="h" x1="100.186761%" x2=".49167%" xlink:href="#d" y1="32.979618%" y2="66.844013%"/><linearGradient id="i" x1="100.093162%" x2=".390958%" xlink:href="#d" y1="32.98198%" y2="66.853345%"/><linearGradient id="j" x1="99.809894%" x2=".115536%" xlink:href="#d" y1="33.091406%" y2="66.962626%"/><linearGradient id="k" x1="60.179508%" x2="9.559928%" y1="45.515196%" y2="95.822946%"><stop offset="0" stop-color="#ffea8e"/><stop offset="1" stop-color="#ffd055"/></linearGradient><path id="l" d="m25.6720497 95.0752477-25.65000003-25.65c-.25-7.27 1.63-15.45 5.43-23.65 2-4.29 4.38-8.38 7.12000003-12.24 2.95-4.17 6.25-8.07 9.87-11.68 5.32-5.35 11.37-9.92 17.96-13.58999996 5.83-3.29 12.11-5.69 18.64-7.13 12.44-2.65 23.14-.61 29.33 5.59 6.2 6.19999996 8.24 16.88999996 5.59 29.33999996-1.44 6.53-3.84 12.81-7.13 18.64-3.67 6.59-8.25 12.64-13.59 17.96-3.61 3.61-7.51 6.91-11.68 9.87-3.86 2.74-7.96 5.12-12.24 7.12-8.19 3.79-16.38 5.67-23.65 5.42z"/><linearGradient id="m" x1="99.895514%" x2="2.880865%" y1="37.658548%" y2="61.95314%"><stop offset="0" stop-color="#628fff"/><stop offset="1" stop-color="#456ffc"/></linearGradient><mask id="n" fill="#fff"><use fill="#fff" fill-rule="evenodd" xlink:href="#b"/></mask><mask id="o" fill="#fff"><use fill="#fff" fill-rule="evenodd" xlink:href="#l"/></mask></defs><g fill="none" fill-rule="evenodd"><use fill="url(#a)" fill-rule="nonzero" xlink:href="#b"/><g mask="url(#n)"><g transform="translate(158 169.63)"><g fill="#bad6ff"><circle cx="40" cy="89" r="40"/><circle cx="101" cy="106" r="61"/><circle cx="172" cy="72" r="61"/><circle cx="259.5" cy="90.5" r="45.5"/><circle cx="355" cy="69" r="69"/></g><g fill="#fff" transform="translate(1 8)"><circle cx="40" cy="89" r="40"/><circle cx="101" cy="106" r="61"/><circle cx="172" cy="72" r="61"/><circle cx="259.5" cy="90.5" r="45.5"/><circle cx="355" cy="69" r="69"/></g></g></g><g fill-rule="nonzero"><g mask="url(#n)"><g transform="translate(118.213 206.406)"><path d="m18.21.09 18.22 31.76h-36.43z" fill="#b6d9ff"/><path d="m18.21.02 18.05 31.84h-12.25z" fill="#a9cefb"/><path d="m11.07 12.53 2.93-2.06 1.58 2.06 1.71-2.06 2.11 2.06.36-2.62 2.57 2.02.51-1.72 1.94 1.36-6.56-11.57z" fill="#d1e6ff"/></g></g><g mask="url(#n)"><g transform="translate(149.933 216.906)"><path d="m12.21.07 12.2 21.28h-24.41z" fill="#b6d9ff"/><path d="m12.21.02 12.09 21.33h-8.21z" fill="#a9cefb"/><path d="m7.43 8.41 1.96-1.38 1.06 1.38 1.15-1.38 1.41 1.38.24-1.76 1.72 1.35.34-1.16 1.3.91-4.4-7.75z" fill="#d1e6ff"/></g></g><g mask="url(#n)"><g transform="translate(42.88 163.05)"><circle cx="36.2" cy="36.2" fill="#fed980" r="31.48"/><circle cx="36.2" cy="36.2" fill="url(#c)" opacity=".5" r="36.2"/></g></g><path d="m58.43 245.93h-41.6c-9.07-11.49-7.1-28.15 4.38-37.22 11.49-9.07 28.15-7.1 37.22 4.38 7.6 9.63 7.6 23.21 0 32.84z" fill="#fff" mask="url(#n)"/><path d="m102.89003 243.07h-46.6800602c-.0099698-6.09 2.4600302-11.93 6.8400302-16.17 9.19-8.93 23.82-8.93 33.01 0 4.37 4.24 6.84 10.08 6.83003 16.17z" fill="#fff" mask="url(#n)"/><path d="m132.43 246.88h-43.83c0-5.65 2.32-11.05 6.42-14.94 8.68-8.25 22.31-8.25 30.99 0 4.1 3.89 6.42 9.29 6.42 14.94z" fill="#fff" mask="url(#n)"/><path d="m524 28.95v81.81c-5.93-3.76-12.74-6.97-21.73-6.47-14.96.84-17.73 10.94-30.39 9.58-15.92-1.71-32.47-19.91-30.68-34.77 1.76-14.53 21.52-11.39 39.4-37.16 12.57-18.08 18.71-37.22 27.24-38.75 9.57 4.63 16.16 14.43 16.16 25.76z" fill="url(#e)" opacity=".3"/><path d="m276.92 8.11c.51.88-47.69 29.65-49.21 30.52s-3.16.88-3.66 0c-.51-.88.32-2.3 1.83-3.17 1.52-.87 50.54-28.22 51.04-27.35z" fill="url(#f)" opacity=".3"/><path d="m65.29 199.72c.38.65-35.42 22.02-36.55 22.67s-2.35.65-2.72 0 .24-1.71 1.36-2.36c1.12-.64 37.53-20.96 37.91-20.31z" fill="url(#g)" opacity=".3"/><path d="m298.84 176.74c.51.88-47.69 29.65-49.21 30.52s-3.16.88-3.66 0c-.51-.88.32-2.3 1.83-3.17s50.53-28.22 51.04-27.35z" fill="url(#h)" opacity=".3"/><path d="m501.39 45.52c.37.64-34.98 21.75-36.09 22.39s-2.32.64-2.69 0 .23-1.69 1.34-2.33 37.07-20.7 37.44-20.06z" fill="url(#i)" opacity=".3"/><path d="m491.53 165.87c.46.79-42.96 26.71-44.33 27.5s-2.84.79-3.3 0 .28-2.07 1.65-2.86c1.36-.79 45.52-25.43 45.98-24.64z" fill="url(#j)" opacity=".3"/><path d="m358.61 95.55c1.61-5.18 4.48-9.88 8.35-13.68 4.59-4.76 10.57-7.95 17.08-9.12 6.07-.93 11.41.55 15.04 4.18s5.12 8.97 4.18 15.04c-1.17 6.51-4.36 12.49-9.12 17.09-1.56 1.56-3.26 2.98-5.09 4.22-.88-4.38-3.02-8.4-6.16-11.58-5.75-5.75-14.6-8-24.28-6.15z" fill="#84b1ea"/><path d="m359.6 92.75c1.72-4.08 4.22-7.77 7.37-10.89 4.59-4.76 10.57-7.95 17.09-9.12 6.07-.93 11.41.55 15.04 4.19 3.63 3.63 5.12 8.97 4.19 15.04-.59 3.62-1.86 7.09-3.76 10.22.82-1.98 1.41-4.05 1.74-6.17.94-6.07-.56-11.41-4.19-15.04s-8.97-5.12-15.04-4.19c-6.51 1.17-12.49 4.36-17.09 9.12-2.07 2.05-3.86 4.35-5.35 6.84z" fill="#a9cdfd"/><g transform="matrix(.70710678 .70710678 -.70710678 .70710678 431.935701 114.833986)"><path d="m34.9551254 41.79c2.55-4.8 3.85-10.15 3.79-15.58.12-6.62-1.87-13.11-5.67-18.53-3.66-4.95-8.53-7.68-13.7-7.68s-10.04 2.73-13.7 7.68c-3.8 5.42-5.79 11.91-5.67 18.53 0 2.21.21 4.41.62 6.59 3.75-2.48 8.14-3.81 12.64-3.83 8.21-.01 16.11 4.67 21.69 12.82z" fill="#84b1ea"/><path d="m36.2451254 39.11c1.68-4.09 2.53-8.48 2.51-12.9.12-6.62-1.87-13.11-5.67-18.53-3.66-4.95-8.53-7.68-13.7-7.68s-10.04 2.73-13.7 7.68c-2.16 2.97-3.72 6.33-4.6 9.89.83-1.98 1.89-3.86 3.16-5.59 3.66-4.95 8.53-7.68 13.7-7.68s10.04 2.73 13.7 7.68c3.8 5.42 5.79 11.91 5.67 18.53 0 2.89-.36 5.79-1.07 8.6z" fill="#a9cdfd"/></g><g transform="translate(368.03 121.321198)"><path d="m34.14 27.718802s-4.4027029 2.3924461-4.4 2.39c-.0075137.0060057-9.4917222 5.5843307-9.53 5.600095l-1.9-7.270095-15.42 6.82 3.86-18.33-6.75 1.77c1.39-3.97 3.06-7.84 5.01-11.57000001-.00111893.00198235 3.45795033-5.12880199 3.45795033-5.12880199z" fill="#ffe39b"/><path d="m36.14 25.718802s-4.4027029 2.3924461-4.4 2.39c-.0075137.0060057-9.4917222 5.5843307-9.53 5.600095l-1.9-7.270095-15.42 6.82 3.86-18.33-6.75 1.77c1.39-3.97 3.06-7.84000001 5.01-11.57000001-.00111893.00198235 3.4579503-5.12880199 3.4579503-5.12880199z" fill="url(#k)"/><path d="m34.04 21.808802-19.8120643-17.82000001c-4.90647031 5.43-4.0741227 13.46000001 1.8618303 17.94000001 5.2240766 3.95 12.791869 3.9 17.950234-.12z" fill="#ffa831"/></g><g transform="translate(376.49795 53.964752)"><use fill="#eef2fe" xlink:href="#l"/><g fill="#ff5000" mask="url(#o)"><path d="m24.091758-3.732275h4.049961v69.81933h-4.049961z" transform="matrix(.70710678 -.70710678 .70710678 .70710678 33.227072 16.695662)"/><path d="m29.151258-8.792927h4.049961v69.81933h-4.049961z" transform="matrix(.70710678 -.70710678 .70710678 .70710678 38.287386 18.791038)"/></g></g><g transform="translate(405.15 79.76)"><circle cx="19.87" cy="19.87" fill="#a4cffa" r="19.87"/><circle cx="19.87" cy="19.87" fill="url(#m)" r="15.69"/><path d="m21.44 32.42c3.14-.7 5.94-2.48 7.89-5.04 1.99-2.55 3-5.74 2.85-8.97-.14-3.32-1.67-6.44-4.2-8.59-1.99-1.68-4.49-2.66-7.09-2.77 1.03.45 1.98 1.05 2.84 1.78 2.84 2.49 4.54 6.04 4.7 9.82.35 5.51-2.32 10.79-6.99 13.77z" fill="#eef2fe"/></g><circle cx="402.05" cy="122.22" fill="#e2f1fe" r="4.77"/><circle cx="402.05" cy="122.22" fill="#cfe9ff" r="4"/></g><path d="m151.35 156.62c-3.56.12-7.18.18-10.83.18-58.45 0-105.83-15.38-105.83-34.35 0-4.15 2.27-8.13 6.43-11.82" stroke="#fff" stroke-linecap="round" stroke-width="3.7134"/><path d="m190.43 48.5c33.9 4.35 59.22 14.22 65.44 26.2" stroke="#fff" stroke-linecap="round" stroke-width="3.7134"/><text fill="#fff" font-family="PingFang-SC-Heavy, PingFang SC" font-size="42" font-weight="600"><tspan x="79" y="90">新版本</tspan> <tspan x="79" y="146">来啦！</tspan></text></g></svg>