<?xml version="1.0" standalone="no"?>
<!DOCTYPE svg PUBLIC "-//W3C//DTD SVG 1.1//EN" "http://www.w3.org/Graphics/SVG/1.1/DTD/svg11.dtd">
<svg t="1651312763157" class="icon" viewBox="0 0 1024 1024" version="1.1" xmlns="http://www.w3.org/2000/svg" p-id="20994" xmlns:xlink="http://www.w3.org/1999/xlink" width="48" height="48">
    <defs></defs>
    <path d="M81.454545 395.636364A34.909091 34.909091 0 0 1 46.545455 360.727273v-232.727273C46.545455 83.083636 83.083636 46.545455 128 46.545455h232.727273a34.909091 34.909091 0 0 1 0 69.818181h-232.727273c-6.4 0-11.636364 5.236364-11.636364 11.636364v232.727273A34.909091 34.909091 0 0 1 81.454545 395.636364z m861.09091 0a34.909091 34.909091 0 0 1-34.909091-34.909091v-232.727273c0-6.4-5.236364-11.636364-11.636364-11.636364h-232.727273a34.909091 34.909091 0 0 1 0-69.818181h232.727273C940.916364 46.545455 977.454545 83.083636 977.454545 128v232.727273a34.909091 34.909091 0 0 1-34.90909 34.909091z m-581.818182 581.818181h-232.727273C83.083636 977.454545 46.545455 940.916364 46.545455 896v-232.727273a34.909091 34.909091 0 0 1 69.818181 0v232.727273c0 6.4 5.236364 11.636364 11.636364 11.636364h232.727273a34.909091 34.909091 0 0 1 0 69.818181z m535.272727 0h-232.727273a34.909091 34.909091 0 0 1 0-69.818181h232.727273c6.4 0 11.636364-5.236364 11.636364-11.636364v-232.727273a34.909091 34.909091 0 0 1 69.818181 0v232.727273c0 44.916364-36.538182 81.454545-81.454545 81.454545zM930.909091 546.909091H93.090909a34.909091 34.909091 0 0 1 0-69.818182h837.818182a34.909091 34.909091 0 0 1 0 69.818182z" fill="#444444" p-id="20995"></path>
</svg>