<?xml version="1.0" standalone="no"?><!DOCTYPE svg PUBLIC "-//W3C//DTD SVG 1.1//EN" "http://www.w3.org/Graphics/SVG/1.1/DTD/svg11.dtd"><svg class="icon" width="64px" height="64.00px" viewBox="0 0 1024 1024" version="1.1" xmlns="http://www.w3.org/2000/svg"><path fill="#3F4B56" d="M824.9 282.1H195.1c-13.7 0-21.1-16-12.3-26.5l76-90.1c3.1-3.6 7.6-5.7 12.3-5.7h458.7c4.1 0 8.1 1.6 11.1 4.4l95.2 90.1c10.5 10 3.4 27.8-11.2 27.8zM848.3 352.6H175.6c-8.9 0-16.1 7.2-16.1 16.1v480.2c0 8.9 7.2 16.1 16.1 16.1h672.7c8.9 0 16.1-7.2 16.1-16.1V368.7c-0.1-8.9-7.3-16.1-16.1-16.1zM610.5 608.7h-65.2v123.7c0 8.9-7.2 16.2-16.2 16.2h-38.2c-8.9 0-16.2-7.2-16.2-16.2V608.7h-65.2c-14.4 0-21.6-17.4-11.4-27.6l100.5-100.5c6.3-6.3 16.6-6.3 22.9 0L621.9 581c10.2 10.2 3 27.7-11.4 27.7z"  /></svg>