<?xml version="1.0" standalone="no"?>
<!DOCTYPE svg PUBLIC "-//W3C//DTD SVG 1.1//EN" "http://www.w3.org/Graphics/SVG/1.1/DTD/svg11.dtd">
<svg t="1651312352810" class="icon" viewBox="0 0 1024 1024" version="1.1" xmlns="http://www.w3.org/2000/svg" p-id="19121" xmlns:xlink="http://www.w3.org/1999/xlink" width="48" height="48">
    <defs></defs>
    <path d="M360.13 241.5c10.35 10.35 27.13 10.35 37.48 0l90.93-90.93v233.82c0 5.84 4.74 10.58 10.58 10.58h31.83c5.84 0 10.58-4.74 10.58-10.58V150.57l90.93 90.93c10.35 10.35 27.13 10.35 37.48 0 10.35-10.35 10.35-27.13 0-37.48L541.12 75.2c-14.4-14.4-37.75-14.4-52.16 0L360.13 204.03c-10.35 10.35-10.35 27.13 0 37.47z" p-id="19122"></path>
    <path d="M952.85 576.56l-0.03-0.34c-0.03-0.41-0.06-0.82-0.11-1.23-0.01-0.12-0.03-0.24-0.05-0.36-0.06-0.43-0.12-0.86-0.2-1.28-0.01-0.08-0.03-0.16-0.04-0.23-0.31-1.63-0.76-3.2-1.35-4.7 0-0.01-0.01-0.02-0.01-0.03-0.26-0.66-0.54-1.3-0.84-1.93l-98.76-210.37a26.493 26.493 0 0 0-24.01-15.29H697.5c-5.95 0-10.77 4.82-10.77 10.77v31.46c0 5.95 4.82 10.77 10.77 10.77h113.07l74.19 157.77H729.8a26.52 26.52 0 0 0-23.69 14.62l-61.99 123.58h-259.3l-61.99-123.58a26.497 26.497 0 0 0-23.69-14.62H145.3l71.52-154.71h112.25c5.95 0 10.77-4.82 10.77-10.77v-31.46c0-5.95-4.82-10.77-10.77-10.77H199.95c-10.29 0-19.66 5.96-24.01 15.29L79.85 566.46c-0.3 0.62-0.58 1.26-0.83 1.91-0.01 0.02-0.02 0.04-0.02 0.06-0.59 1.5-1.04 3.07-1.35 4.69-0.02 0.08-0.03 0.16-0.04 0.24-0.08 0.42-0.14 0.84-0.2 1.27-0.02 0.12-0.03 0.25-0.05 0.37-0.05 0.4-0.08 0.81-0.11 1.22l-0.03 0.35c-0.03 0.49-0.04 0.99-0.04 1.49v308.63c0 44.34 35.94 80.28 80.28 80.28H883.5c38.32 0 69.39-31.07 69.39-69.39V578.05c0-0.5-0.01-1-0.04-1.49z m-81.39 337.41H163.32c-18.3 0-33.14-14.84-33.14-33.14V604.55h152.6l61.99 123.58a26.497 26.497 0 0 0 23.69 14.62h292c10.03 0 19.19-5.66 23.69-14.62l61.99-123.58h153.75v280.99c0 15.7-12.73 28.43-28.43 28.43z" p-id="19123" data-spm-anchor-id="a313x.7781069.0.i37" class=""></path>
</svg>