<?xml version="1.0" standalone="no"?>
<!DOCTYPE svg PUBLIC "-//W3C//DTD SVG 1.1//EN" "http://www.w3.org/Graphics/SVG/1.1/DTD/svg11.dtd">
<svg t="1651311545264" class="icon" viewBox="0 0 1024 1024" version="1.1" xmlns="http://www.w3.org/2000/svg" p-id="12123" xmlns:xlink="http://www.w3.org/1999/xlink" width="48" height="48">
    <defs></defs>
    <path d="M478.327928 529.527928h-181.736937A38.284685 38.284685 0 0 0 258.306306 567.812613v181.736937A38.284685 38.284685 0 0 0 296.590991 787.834234h181.736937A38.284685 38.284685 0 0 0 516.612613 749.54955v-181.736937A38.284685 38.284685 0 0 0 478.327928 529.527928z m1.383784 208.49009a12.915315 12.915315 0 0 1-12.915316 12.915315h-158.673873a12.915315 12.915315 0 0 1-12.915316-12.915315v-158.673874a12.915315 12.915315 0 0 1 12.915316-12.915315h60.886486v55.351351a18.45045 18.45045 0 0 0 36.900901 0v-55.351351h60.886486a12.915315 12.915315 0 0 1 12.915316 12.915315zM775.38018 529.527928h-181.736937A38.284685 38.284685 0 0 0 555.358559 567.812613v181.736937A38.284685 38.284685 0 0 0 593.643243 787.834234h181.736937A38.284685 38.284685 0 0 0 813.664865 749.54955v-181.736937A38.284685 38.284685 0 0 0 775.38018 529.527928z m1.383784 208.49009a12.915315 12.915315 0 0 1-12.915315 12.915315h-158.673874a12.915315 12.915315 0 0 1-12.915316-12.915315v-158.673874a12.915315 12.915315 0 0 1 12.915316-12.915315h60.886486v55.351351a18.45045 18.45045 0 0 0 36.900901 0v-55.351351h60.886487a12.915315 12.915315 0 0 1 12.915315 12.915315z" p-id="12124"></path>
    <path d="M420.67027 289.672072m-18.45045 0a18.45045 18.45045 0 1 0 36.900901 0 18.45045 18.45045 0 1 0-36.900901 0Z" p-id="12125"></path>
    <path d="M439.581982 492.627027h183.581982A37.362162 37.362162 0 0 0 660.526126 455.264865v-183.581982A37.362162 37.362162 0 0 0 623.163964 234.320721H457.571171a18.45045 18.45045 0 0 0 0 36.900901h55.351352v55.351351a18.45045 18.45045 0 0 0 36.9009 0v-55.351351h66.421622a7.38018 7.38018 0 0 1 7.38018 7.38018v169.744144a7.38018 7.38018 0 0 1-7.38018 7.38018h-169.744144a7.38018 7.38018 0 0 1-7.38018-7.38018v-110.702703a18.45045 18.45045 0 0 0-36.900901 0v117.621622A37.362162 37.362162 0 0 0 439.581982 492.627027z" p-id="12126"></path>
</svg>