<?xml version="1.0" standalone="no"?><!DOCTYPE svg PUBLIC "-//W3C//DTD SVG 1.1//EN" "http://www.w3.org/Graphics/SVG/1.1/DTD/svg11.dtd"><svg t="1653363683229" class="icon" viewBox="0 0 1024 1024" version="1.1" xmlns="http://www.w3.org/2000/svg" p-id="8241" xmlns:xlink="http://www.w3.org/1999/xlink" width="32" height="32"><defs><style type="text/css">@font-face { font-family: feedback-iconfont; src: url("//at.alicdn.com/t/font_1031158_u69w8yhxdu.woff2?t=1630033759944") format("woff2"), url("//at.alicdn.com/t/font_1031158_u69w8yhxdu.woff?t=1630033759944") format("woff"), url("//at.alicdn.com/t/font_1031158_u69w8yhxdu.ttf?t=1630033759944") format("truetype"); }
</style></defs><path d="M750.933333 307.268267v272.930133c0.3072 17.134933-15.189333 34.2016-33.8944 34.2016H648.533333c-31.573333 0-34.133333 68.266667-136.533333 68.266667s-102.4-68.266667-136.533333-68.266667H307.2c-18.7392 0-34.133333-15.5648-34.133333-34.2016V307.268267C273.066667 288.426667 290.133333 273.066667 307.2 273.066667a34.133333 34.133333 0 1 0 0-68.266667H272.759467A67.925333 67.925333 0 0 0 204.8 272.759467V751.274667A67.925333 67.925333 0 0 0 272.759467 819.2H751.274667A67.925333 67.925333 0 0 0 819.2 751.240533V272.725333A67.925333 67.925333 0 0 0 751.240533 204.8H716.8a34.133333 34.133333 0 0 0 0 68.266667c17.066667 0 34.133333 15.5648 34.133333 34.2016z" fill="#000000" p-id="8242" data-spm-anchor-id="a313x.7781069.0.i9" class="selected"></path><path d="M460.526933 307.541333c0-19.0464 15.121067-34.474667 34.474667-34.474666h67.584c19.0464 0 34.474667 15.121067 34.474667 34.474666V409.6h102.058666c19.0464 0 22.869333 9.659733 8.123734 21.947733l-126.225067 105.198934c-28.842667 24.029867-75.707733 23.927467-104.448 0l-126.225067-105.198934c-14.5408-12.117333-11.229867-21.947733 8.0896-21.947733h102.0928V307.541333z" fill="#000000" p-id="8243" data-spm-anchor-id="a313x.7781069.0.i12" class="selected"></path></svg>