<?xml version="1.0" standalone="no"?><!DOCTYPE svg PUBLIC "-//W3C//DTD SVG 1.1//EN" "http://www.w3.org/Graphics/SVG/1.1/DTD/svg11.dtd"><svg class="icon" width="64px" height="64.00px" viewBox="0 0 1024 1024" version="1.1" xmlns="http://www.w3.org/2000/svg"><path fill="#3F4B56" d="M847.6 160.9h-671c-8.9 0-16.1 7.2-16.1 16.1v300.4h391.4l-130-130c-6.2-6.2-6.2-16.2 0-22.4l27.3-27.3c6.2-6.2 16.2-6.2 22.4 0l203.7 203.7c6.2 6.2 6.2 16.2 0 22.4l-38.5 38.5-165.1 165.1c-6.2 6.2-16.2 6.2-22.4 0L422 700.1c-6.2-6.2-6.2-16.2 0-22.4l130-130H160.5V848c0 8.9 7.2 16.1 16.1 16.1h671.1c8.9 0 16.1-7.2 16.1-16.1V177c-0.1-8.9-7.3-16.1-16.2-16.1z"  /></svg>