<?xml version="1.0" standalone="no"?><!DOCTYPE svg PUBLIC "-//W3C//DTD SVG 1.1//EN" "http://www.w3.org/Graphics/SVG/1.1/DTD/svg11.dtd"><svg class="icon" width="64px" height="64.00px" viewBox="0 0 1024 1024" version="1.1" xmlns="http://www.w3.org/2000/svg"><path fill="#3F4B56" d="M510.1 138c-206.7 0-374.3 167.6-374.3 374.3s167.6 374.3 374.3 374.3S884.4 719 884.4 512.3 716.8 138 510.1 138z m98.8 374.2c0 18.8-6.7 35.8-17.5 49.5l41.7 48.1c6-2.3 12.4-3.7 19.1-3.7 29.6 0 53.6 24 53.6 53.6s-24 53.6-53.6 53.6-53.6-24-53.6-53.6c0-8.7 2.3-16.8 6-24.1l-43.4-50.1c-10 4.5-21 7.1-32.7 7.1-37.7 0-69.2-26.1-77.8-61.2h-80.8c-7.7 20.2-27.1 34.5-49.9 34.5-29.6 0-53.6-24-53.6-53.6s24-53.6 53.6-53.6c22.7 0 42 14.2 49.8 34.2h80.9c8.7-35.1 40.1-61.1 77.8-61.1 11.7 0 22.7 2.6 32.7 7.1l43.9-50.7c-4-7.5-6.5-15.9-6.5-25 0-29.6 24-53.6 53.6-53.6s53.6 24 53.6 53.6-24 53.6-53.6 53.6c-6.4 0-12.4-1.3-18.1-3.3l-42.7 49.4c10.8 13.5 17.5 30.6 17.5 49.3z"  /></svg>