<?xml version="1.0" standalone="no"?><!DOCTYPE svg PUBLIC "-//W3C//DTD SVG 1.1//EN" "http://www.w3.org/Graphics/SVG/1.1/DTD/svg11.dtd"><svg t="1655954742500" class="icon" viewBox="0 0 1026 1024" version="1.1" xmlns="http://www.w3.org/2000/svg" p-id="12289" xmlns:xlink="http://www.w3.org/1999/xlink" width="32.0625" height="32"><defs><style type="text/css">@font-face { font-family: feedback-iconfont; src: url("//at.alicdn.com/t/font_1031158_u69w8yhxdu.woff2?t=1630033759944") format("woff2"), url("//at.alicdn.com/t/font_1031158_u69w8yhxdu.woff?t=1630033759944") format("woff"), url("//at.alicdn.com/t/font_1031158_u69w8yhxdu.ttf?t=1630033759944") format("truetype"); }
</style></defs><path d="M0 142.848h1026.048v91.136H0z" fill="#FFF1E1" p-id="12290"></path><path d="M910.336 0H114.176C51.2 0 0 67.072 0 152.064h1026.048C1024.512 67.072 973.824 0 910.336 0zM0 225.792v645.12c0 83.968 50.688 152.064 114.176 152.064H912.384c62.976 0 114.176-68.096 114.176-152.064v-645.12H0z" fill="#FEB957" p-id="12291"></path><path d="M720.896 713.728c0 14.336-11.776 28.16-27.648 28.16h-151.04v99.84c0 14.336-11.776 28.16-27.648 28.16h-2.56c-13.312 0-27.648-12.288-27.648-28.16v-99.84H333.312c-13.312 0-27.648-12.288-27.648-28.16v-3.584c0-14.336 11.776-28.16 27.648-28.16h151.04V629.76H371.2c-13.312 0-27.648-12.288-27.648-28.16v-2.048c0-14.336 11.776-28.16 27.648-28.16h113.664L357.888 444.928c-4.608-5.632-8.704-12.288-8.704-18.944 0-8.704 2.56-14.336 8.704-18.944 4.608-5.632 11.776-8.704 18.432-8.704 7.168 0 13.312 3.584 18.432 8.704l119.296 120.832L630.784 407.04c4.608-5.632 11.776-8.704 18.432-8.704s13.312 3.584 18.432 8.704c4.608 5.632 8.704 12.288 8.704 18.944 0 8.704-2.56 14.336-8.704 18.944l-125.44 126.464h112.128c13.312 0 27.648 12.288 27.648 28.16v2.048c0 14.336-11.776 28.16-27.648 28.16h-113.664v52.736h151.04c13.312 0 27.648 12.288 27.648 28.16 1.536-2.048 1.536 3.072 1.536 3.072z" fill="#FFFFFF" p-id="12292"></path></svg>