<?xml version="1.0" standalone="no"?><!DOCTYPE svg PUBLIC "-//W3C//DTD SVG 1.1//EN" "http://www.w3.org/Graphics/SVG/1.1/DTD/svg11.dtd"><svg t="1676431126385" class="icon" viewBox="0 0 1024 1024" version="1.1" xmlns="http://www.w3.org/2000/svg" p-id="6288" xmlns:xlink="http://www.w3.org/1999/xlink" width="200" height="200"><path d="M955.1 293h2.1c0.6 0 1.1 0 1.7 0.1h0.2c0.6 0.1 1.2 0.1 1.7 0.2 0.1 0 0.2 0 0.4 0.1 0.6 0.1 1.1 0.2 1.7 0.4h0.2c0.5 0.1 1 0.3 1.5 0.5 0.1 0 0.2 0.1 0.3 0.1 0.5 0.2 1.1 0.4 1.6 0.6 0.1 0 0.2 0.1 0.3 0.1 0.5 0.2 1 0.5 1.5 0.8L665.4 131c-0.3-0.2-0.6-0.3-0.9-0.5l-0.6-0.3c-0.1 0-0.2-0.1-0.3-0.1-0.5-0.2-1-0.4-1.6-0.6-0.1 0-0.2-0.1-0.3-0.1-0.5-0.2-1-0.3-1.5-0.5h-0.2-0.1c-0.5-0.1-1.1-0.3-1.6-0.4-0.1 0-0.2 0-0.4-0.1-0.6-0.1-1.2-0.2-1.7-0.2h-0.2c-0.5 0-1.1-0.1-1.7-0.1h-2.5c-0.6 0-1.3 0.1-1.9 0.2L72.1 209.5c-0.7 0.1-1.3 0.2-2 0.4-0.2 0-0.3 0.1-0.5 0.1-0.6 0.1-1.2 0.3-1.7 0.5-0.1 0-0.1 0-0.2 0.1-0.6 0.2-1.3 0.4-1.9 0.6-0.2 0.1-0.3 0.1-0.5 0.2-0.5 0.2-1.1 0.4-1.6 0.7-0.1 0-0.1 0.1-0.2 0.1h-0.1c-0.7 0.3-1.4 0.7-2.2 1.1-0.1 0.1-0.2 0.1-0.3 0.2-0.7 0.4-1.4 0.8-2 1.3-0.1 0-0.1 0.1-0.2 0.1l-0.2 0.2c-0.5 0.3-1 0.7-1.4 1.1-0.1 0-0.1 0.1-0.2 0.1-0.5 0.4-1 0.8-1.5 1.3-0.1 0-0.1 0.1-0.2 0.1l-0.2 0.2c-0.4 0.3-0.7 0.7-1.1 1l-0.4 0.4c-0.4 0.5-0.9 0.9-1.3 1.4l-0.2 0.2c-0.4 0.4-0.7 0.8-1 1.2-0.1 0.1-0.2 0.3-0.4 0.5l-0.9 1.2c-0.1 0.1-0.1 0.2-0.2 0.3 0 0 0 0.1-0.1 0.1-0.4 0.5-0.7 1.1-1.1 1.7-0.1 0.1-0.2 0.3-0.2 0.4-0.3 0.5-0.6 0.9-0.8 1.4-0.1 0.1-0.1 0.2-0.2 0.3 0 0 0 0.1-0.1 0.1-0.4 0.7-0.7 1.4-1 2.1-0.1 0.1-0.1 0.3-0.2 0.4-0.3 0.7-0.6 1.5-0.9 2.2v0.1c-0.1 0.2-0.2 0.5-0.2 0.7-0.1 0.2-0.2 0.5-0.2 0.7-0.1 0.3-0.2 0.5-0.2 0.8-0.1 0.2-0.1 0.5-0.2 0.7-0.1 0.3-0.1 0.6-0.2 0.8-0.1 0.2-0.1 0.5-0.2 0.7-0.1 0.3-0.1 0.6-0.2 0.9 0 0.2-0.1 0.5-0.1 0.7-0.1 0.3-0.1 0.6-0.1 0.9 0 0.2-0.1 0.4-0.1 0.7 0 0.3-0.1 0.6-0.1 0.9 0 0.2-0.1 0.4-0.1 0.6 0 0.3-0.1 0.7-0.1 1v2.2L42 703.4c0 11.3 5.4 20.3 13.5 24.7L358.6 893c-8.1-4.4-13.5-13.5-13.5-24.7l0.9-458.2v-1.6-0.6c0-0.3 0-0.7 0.1-1 0-0.2 0.1-0.4 0.1-0.6 0-0.3 0.1-0.6 0.1-0.9 0-0.2 0.1-0.4 0.1-0.7 0-0.3 0.1-0.6 0.1-0.9 0-0.2 0.1-0.5 0.1-0.7 0.1-0.3 0.1-0.6 0.2-0.9 0.1-0.2 0.1-0.5 0.2-0.7 0.1-0.3 0.1-0.6 0.2-0.8 0.1-0.2 0.1-0.5 0.2-0.7 0.1-0.3 0.2-0.5 0.2-0.8 0.1-0.2 0.2-0.5 0.2-0.7 0.1-0.3 0.2-0.5 0.3-0.8 0.3-0.7 0.6-1.5 0.9-2.2 0.1-0.1 0.1-0.3 0.2-0.4 0.3-0.7 0.7-1.4 1-2.1 0.1-0.1 0.2-0.3 0.2-0.4 0.3-0.5 0.5-1 0.8-1.4 0.1-0.1 0.2-0.3 0.2-0.4 0.4-0.6 0.7-1.1 1.1-1.7 0.1-0.1 0.2-0.2 0.3-0.4l0.9-1.2c0.1-0.2 0.2-0.3 0.4-0.5 0.3-0.4 0.7-0.8 1-1.2 0.1-0.1 0.1-0.2 0.2-0.2 0.4-0.5 0.9-0.9 1.3-1.4l0.4-0.4 1-1c0.1-0.1 0.3-0.2 0.4-0.4 0.5-0.4 1-0.9 1.5-1.3 0.1-0.1 0.1-0.1 0.2-0.1 0.5-0.4 0.9-0.7 1.4-1.1 0.1-0.1 0.3-0.2 0.4-0.3 0.7-0.4 1.3-0.9 2-1.3 0.1-0.1 0.2-0.1 0.3-0.2 0.7-0.4 1.4-0.8 2.2-1.1 0.1 0 0.2-0.1 0.3-0.1 0.5-0.2 1-0.5 1.6-0.7 0.2-0.1 0.3-0.1 0.5-0.2 0.6-0.2 1.2-0.4 1.9-0.6 0.1 0 0.1 0 0.2-0.1 0.6-0.2 1.2-0.3 1.8-0.5 0.2 0 0.3-0.1 0.5-0.1 0.7-0.1 1.3-0.3 2-0.4l577.7-81.2c0.6-0.1 1.3-0.1 1.9-0.2 0.1 0.1 0.2 0.1 0.3 0.1z" fill="#FF7900" p-id="6289"></path><path d="M611.8 341.2L308.7 176.3l104.4-14.6 303.1 164.8z" fill="#FFA300" p-id="6290"></path><path d="M754 550.6c16-2.3 29.2 9.9 29.2 27.4l-0.3 179.2c0 17.3-13.1 33.4-29.3 35.6l-180.8 25.5c-16 2.3-29.2-9.9-29.2-27.4l0.3-179.3c0-17.3 13.1-33.4 29.3-35.6L754 550.6z m-13.6 190.3c6.7-0.9 12.2-7.5 12.1-14.7 0-7.1-5.3-12.3-12-11.3l-154.1 21.7c-6.6 0.9-12.1 7.4-12.1 14.7 0 7.1 5.3 12.3 12 11.3l154.1-21.7m0.1-52.3c6.7-0.9 12.2-7.6 12.1-14.7 0-7.1-5.3-12.3-12-11.3l-154.1 21.7c-6.6 0.9-12.1 7.4-12.1 14.7 0 7.1 5.3 12.3 12 11.3l154.1-21.7m-154.1-72.5c-6.6 0.9-12.1 7.4-12.1 14.7 0 7.1 5.3 12.3 12 11.3l30.4-4.3c6.7-0.9 12.1-7.6 12.1-14.7s-5.3-12.3-12-11.3l-30.4 4.3" fill="#FFFFFF" p-id="6291"></path><path d="M740.4 714.9c6.7-0.9 12 4.2 12 11.3 0.1 7.2-5.3 13.8-12.1 14.7l-154.1 21.7c-6.7 0.9-12-4.2-12-11.3 0-7.3 5.5-13.8 12.1-14.7l154.1-21.7zM740.5 662.5c6.7-0.9 12 4.2 12 11.3 0.1 7.1-5.3 13.8-12.1 14.7l-154.1 21.7c-6.7 0.9-12-4.2-12-11.3 0-7.3 5.5-13.8 12.1-14.7l154.1-21.7z" fill="#00A4FF" p-id="6292"></path><path d="M716.2 326.5l-0.3 165.1c0 8.7-6.6 16.7-14.7 17.9L626 520.1c-8.1 1.1-14.5-5.1-14.5-13.8l0.3-165.1 104.4-14.7z" fill="#FDF17F" p-id="6293"></path><path d="M952.8 293.2c16.1-2.3 29.2 9.9 29.2 27.4l-0.9 458.4c-0.1 17.4-13.2 33.2-29.3 35.5l-577.6 81.2c-16.1 2.3-29.2-9.9-29.2-27.4l0.9-458.2c0-17.3 13.1-33.4 29.3-35.6l577.6-81.3z m-170 464l0.3-179.2c0-17.5-13.1-29.7-29.2-27.4L573.1 576c-16.2 2.3-29.2 18.3-29.3 35.6l-0.3 179.3c0 17.5 13.1 29.7 29.2 27.4l180.8-25.5c16.2-2.2 29.3-18.2 29.3-35.6m-171-416l-0.3 165.1c0 8.7 6.4 14.8 14.5 13.8l75.2-10.6c8.1-1.1 14.7-9.2 14.7-17.9l0.3-165.1-104.4 14.7" fill="#FFA300" p-id="6294"></path><path d="M616.8 611.8c6.7-0.9 12 4.2 12 11.3 0.1 7.1-5.3 13.8-12.1 14.7l-30.4 4.3c-6.7 0.9-12-4.2-12-11.3 0-7.3 5.5-13.8 12.1-14.7l30.4-4.3z" fill="#F77490" p-id="6295"></path></svg>