<?xml version="1.0" standalone="no"?>
<!DOCTYPE svg PUBLIC "-//W3C//DTD SVG 1.1//EN" "http://www.w3.org/Graphics/SVG/1.1/DTD/svg11.dtd">
<svg t="1652067126519" class="icon" viewBox="0 0 1024 1024" version="1.1" xmlns="http://www.w3.org/2000/svg" p-id="1980" width="32" height="32" xmlns:xlink="http://www.w3.org/1999/xlink"><defs>
<!-- <style type="text/css">@font-face { font-family: feedback-iconfont; src: url("//at.alicdn.com/t/font_1031158_u69w8yhxdu.woff2?t=1630033759944") format("woff2"), url("//at.alicdn.com/t/font_1031158_u69w8yhxdu.woff?t=1630033759944") format("woff"), url("//at.alicdn.com/t/font_1031158_u69w8yhxdu.ttf?t=1630033759944") format("truetype"); }

</style> -->
</defs><path d="M514.28 323.584a156.126 156.126 0 0 1 155.852-156.058 156.126 156.126 0 0 1 155.921 156.058 156.126 156.126 0 0 1-155.92 155.99 156.126 156.126 0 0 1-155.854-155.99m503.467-228.966c0-49.016-39.8-88.884-87.176-88.884h-0.069C929 5.666 775.058 0 658.8 0 524.997 0 512.914 6.485 498.442 20.958L291.525 228.01 25.968 493.773a89.43 89.43 0 0 0 0.273 126.293l377.583 377.788c16.93 16.862 39.322 26.146 63.283 26.146 23.893 0 46.148-9.216 62.805-25.941L825.44 702.464l177.015-177.22c15.633-15.565 30.31-30.31 15.292-430.626" p-id="1981" data-spm-anchor-id="a313x.7781069.0.i0" class="" fill="#444444"></path></svg>