<?xml version="1.0" standalone="no"?>
<!DOCTYPE svg PUBLIC "-//W3C//DTD SVG 1.1//EN" "http://www.w3.org/Graphics/SVG/1.1/DTD/svg11.dtd">
<svg t="1651312036820" class="icon" viewBox="0 0 1024 1024" version="1.1" xmlns="http://www.w3.org/2000/svg" p-id="18333" xmlns:xlink="http://www.w3.org/1999/xlink" width="48" height="48">
    <defs></defs>
    <path d="M797.866667 738.133333L938.666667 597.333333l59.733333 59.733334-200.533333 200.533333-119.466667-119.466667 59.733333-59.733333 59.733334 59.733333z m-34.133334-98.133333l4.266667-4.266667v-145.066666l-213.333333 123.733333v145.066667l85.333333-46.933334v93.866667l-128 72.533333L170.666667 682.666667V366.933333L512 170.666667l341.333333 196.266666V640h-89.6z m-332.8-145.066667l81.066667 46.933334 238.933333-136.533334-81.066666-46.933333-238.933334 136.533333z m-85.333333-51.2l238.933333-136.533333-72.533333-42.666667-238.933333 136.533334 72.533333 42.666666zM256 490.666667v145.066666l213.333333 123.733334v-145.066667l-213.333333-123.733333z" fill="#444444" p-id="18334"></path>
</svg>