<?xml version="1.0" standalone="no"?>
<!DOCTYPE svg PUBLIC "-//W3C//DTD SVG 1.1//EN" "http://www.w3.org/Graphics/SVG/1.1/DTD/svg11.dtd">
<svg t="1650599357896" class="icon" viewBox="0 0 1024 1024" version="1.1" xmlns="http://www.w3.org/2000/svg" p-id="11155" xmlns:xlink="http://www.w3.org/1999/xlink" width="32" height="32">
    <defs></defs>
    <path d="M916.1 1024H107.9C48.3 1023.9 0.1 975.7 0 916.1V107.9C0.1 48.3 48.3 0.1 107.9 0h808.2c59.5 0.1 107.7 48.4 107.9 107.9v808.2c-0.1 59.6-48.3 107.8-107.9 107.9zM107.9 51.2c-31.3 0.1-56.6 25.4-56.7 56.7v808.2c0.1 31.3 25.4 56.6 56.7 56.7h808.2c31.3-0.1 56.6-25.4 56.7-56.7V107.9c-0.1-31.3-25.4-56.6-56.7-56.7H107.9z m403.9 680.1c-14.2 0-25.7-11.5-25.7-25.7V537.7H318.2c-14.1 0-25.6-11.4-25.6-25.6 0-14.1 11.4-25.6 25.6-25.6h167.9V318.6c0-14.2 11.5-25.7 25.7-25.7s25.7 11.5 25.7 25.7v167.9h167.9c6.8 0 13.3 2.6 18.2 7.4 4.8 4.8 7.6 11.3 7.5 18.1 0 14.2-11.5 25.7-25.7 25.7H537.5v167.9c0 14.2-11.5 25.7-25.7 25.7z" p-id="11156"></path>
</svg>