<?xml version="1.0" standalone="no"?><!DOCTYPE svg PUBLIC "-//W3C//DTD SVG 1.1//EN" "http://www.w3.org/Graphics/SVG/1.1/DTD/svg11.dtd"><svg t="1653363451200" class="icon" viewBox="0 0 1150 1024" version="1.1" xmlns="http://www.w3.org/2000/svg" p-id="3838" xmlns:xlink="http://www.w3.org/1999/xlink" width="35.9375" height="32"><defs><style type="text/css">@font-face { font-family: feedback-iconfont; src: url("//at.alicdn.com/t/font_1031158_u69w8yhxdu.woff2?t=1630033759944") format("woff2"), url("//at.alicdn.com/t/font_1031158_u69w8yhxdu.woff?t=1630033759944") format("woff"), url("//at.alicdn.com/t/font_1031158_u69w8yhxdu.ttf?t=1630033759944") format("truetype"); }
</style></defs><path d="M575.213163 570.785185a37.925926 37.925926 0 0 1-15.865679-3.476543l-537.28395-247.466667a37.925926 37.925926 0 0 1 0-68.898765l537.28395-247.466667a37.925926 37.925926 0 0 1 31.604939 0l537.28395 247.466667a37.925926 37.925926 0 0 1 0 68.898765l-537.28395 247.466667a37.925926 37.925926 0 0 1-15.73926 3.476543zM1093.534151 705.548642l-518.320988 238.743704-518.320987-238.743704v83.500247l502.455308 231.474568a37.925926 37.925926 0 0 0 31.604939 0L1093.534151 789.048889z" p-id="3839" fill="#000000" data-spm-anchor-id="a313x.7781069.0.i0" class="selected"></path><path d="M1093.534151 478.688395l-518.320988 238.806914L56.892176 478.688395V562.567901l502.455308 231.411358a37.925926 37.925926 0 0 0 31.604939 0L1093.534151 562.567901z" p-id="3840" fill="#2c2c2c"></path></svg>