<?xml version="1.0" standalone="no"?><!DOCTYPE svg PUBLIC "-//W3C//DTD SVG 1.1//EN" "http://www.w3.org/Graphics/SVG/1.1/DTD/svg11.dtd"><svg class="icon" width="64px" height="64.00px" viewBox="0 0 1024 1024" version="1.1" xmlns="http://www.w3.org/2000/svg"><path fill="#3F4B56" d="M326.1 797.2m-66.3 0a66.3 66.3 0 1 0 132.6 0 66.3 66.3 0 1 0-132.6 0Z"  /><path fill="#3F4B56" d="M690.4 797.2m-66.3 0a66.3 66.3 0 1 0 132.6 0 66.3 66.3 0 1 0-132.6 0Z"  /><path fill="#3F4B56" d="M293.7 607.8l-3.7-38.4c-0.9-9.4 6.5-17.5 15.9-17.5h533.3l43.3-273.6c1.6-9.8-6-18.7-16-18.7H255.3l-5.1-54.8-2.4-29.1c-0.7-8.4-7.7-14.8-16.1-14.8h-91.2c-8.9 0-16.1 7.2-16.1 16.1v38.1c0 8.9 7.2 16.1 16.1 16.1H182L221.4 659c2.1 17.9 12.2 33.6 38.4 33.6h543.3c7.9 0 14.7-5.8 16-13.6l9-56.8H309.6c-8.2 0-15.1-6.2-15.9-14.4z"  /></svg>