<?xml version="1.0" standalone="no"?><!DOCTYPE svg PUBLIC "-//W3C//DTD SVG 1.1//EN" "http://www.w3.org/Graphics/SVG/1.1/DTD/svg11.dtd"><svg class="icon" width="64px" height="64.00px" viewBox="0 0 1024 1024" version="1.1" xmlns="http://www.w3.org/2000/svg"><path fill="#3F4B56" d="M832.7 190.3H669.6V168c0-8.9-7.2-16.1-16.1-16.1h-89c-4.8-24.6-26.4-43.1-52.4-43.1s-47.6 18.6-52.4 43.1h-77.3c-8.9 0-16.1 7.2-16.1 16.1v22.3H191.5c-8.8 0-15.9 7.1-15.9 15.9V870c0 8.8 7.1 15.9 15.9 15.9h641.2c8.8 0 15.9-7.1 15.9-15.9V206.3c0-8.8-7.1-16-15.9-16z m-320.6-6.6c19.5 0 35.3 15.8 35.3 35.3 0 19.5-15.8 35.3-35.3 35.3-19.5 0-35.3-15.8-35.3-35.3 0-19.5 15.8-35.3 35.3-35.3z m193.7 293L506.3 676.2 479 703.5c-6.2 6.2-16.3 6.2-22.6 0l-136-136.1c-6.2-6.2-6.2-16.3 0-22.6l27.3-27.3c6.2-6.2 16.3-6.2 22.6 0l97.5 97.5 188.1-188.1c6.3-6.3 16.4-6.3 22.6 0l27.2 27.2c6.3 6.2 6.3 16.4 0.1 22.6z"  /></svg>