<?xml version="1.0" standalone="no"?><!DOCTYPE svg PUBLIC "-//W3C//DTD SVG 1.1//EN" "http://www.w3.org/Graphics/SVG/1.1/DTD/svg11.dtd"><svg t="1652067188187" class="icon" viewBox="0 0 1024 1024" version="1.1" xmlns="http://www.w3.org/2000/svg" p-id="2854" xmlns:xlink="http://www.w3.org/1999/xlink" width="32" height="32"><defs><style type="text/css">@font-face { font-family: feedback-iconfont; src: url("//at.alicdn.com/t/font_1031158_u69w8yhxdu.woff2?t=1630033759944") format("woff2"), url("//at.alicdn.com/t/font_1031158_u69w8yhxdu.woff?t=1630033759944") format("woff"), url("//at.alicdn.com/t/font_1031158_u69w8yhxdu.ttf?t=1630033759944") format("truetype"); }
</style></defs><path d="M879.835 529.723L764.418 263.782c-13.662-31.472-50.561-45.921-82.378-32.291l-38.428 16.465-200.299-49.709c0.785-6.911 0.032-14.092-2.929-20.913-9.1-20.968-33.681-30.615-54.892-21.526-21.213 9.09-31.047 33.48-21.946 54.445 1.377 3.172 3.199 5.992 5.203 8.624L259.296 412.601l-38.434 16.463c-31.836 13.641-46.572 50.211-32.908 81.686l115.419 265.944c13.647 31.446 50.534 45.918 82.372 32.28L846.92 611.398c31.818-13.633 46.564-50.23 32.915-81.675zM278.508 404.375l102.29-174.944c11.081 6.417 24.947 7.803 37.664 2.356 9.151-3.922 15.985-10.737 20.294-18.83l185.635 43.234-345.883 148.184zM450.234 629.33l-106.803-66.564-0.711 0.305 41.279 94.747-19.357 8.326-54.882-125.975 19.532-8.401 105.635 65.811 0.711-0.305-40.817-93.69 19.357-8.326 54.881 125.982-18.825 8.09z m43.858-18.856l-54.881-125.975 91.103-39.179 7.146 16.404-71.745 30.856 15.989 36.698 67.481-29.02 7.153 16.413-67.484 29.014 17.449 40.05 74.762-32.148 7.146 16.407-94.119 40.48z m211.675-91.029l-68.1-86.146-0.715 0.305 16.606 108.293-20.777 8.933-91.29-110.321 21.846-9.394L630.76 518.6l0.711-0.305-16.814-109.249 20.245-8.709 68.666 86.953 0.709-0.308-18.056-108.717 21.846-9.389 18.297 141.709-20.597 8.86z" fill="" p-id="2855"></path></svg>