<?xml version="1.0" standalone="no"?>
<!DOCTYPE svg PUBLIC "-//W3C//DTD SVG 1.1//EN" "http://www.w3.org/Graphics/SVG/1.1/DTD/svg11.dtd">
<svg t="1651312603863" class="icon" viewBox="0 0 1024 1024" version="1.1" xmlns="http://www.w3.org/2000/svg" p-id="19792" xmlns:xlink="http://www.w3.org/1999/xlink" width="48" height="48">
    <defs></defs>
    <path d="M823.872 777.92q-105.408 58.048-208.768 119.616a188.8 188.8 0 0 1-206.72 0q-103.36-61.632-208.832-119.616A185.6 185.6 0 0 1 96 600.32q1.984-119.616 0-239.232a185.6 185.6 0 0 1 103.296-177.664c51.2-28.224 101.888-57.6 152.448-87.296v68.608c-34.88 20.416-69.504 41.152-104.832 60.8A160 160 0 0 0 159.36 378.048q1.728 102.4 0 205.376a160 160 0 0 0 87.552 152.512q89.6 49.792 176.96 102.4a158.272 158.272 0 0 0 175.168 0q87.552-52.864 176.96-102.4A160 160 0 0 0 864 583.36q-1.728-102.4 0-205.376a160 160 0 0 0-87.552-152.512c-35.136-19.584-69.568-40.256-104.256-60.48V96.384c50.368 29.376 100.736 58.88 151.872 87.04a185.92 185.92 0 0 1 103.36 177.664q-2.112 119.616 0 239.232a185.6 185.6 0 0 1-103.552 177.6z m-304.704-43.776a10.24 10.24 0 0 1-15.68 0l-148.48-166.4a13.184 13.184 0 0 1-3.008-8.96 11.84 11.84 0 0 1 11.136-12.48H480V321.984a32 32 0 0 1 64 0v224.64h115.712a10.624 10.624 0 0 1 7.936 3.648 13.632 13.632 0 0 1 0 17.664zM512 225.984a32 32 0 0 1-32-32v-64a32 32 0 0 1 64 0v64a32 32 0 0 1-32 32z" fill="#333333" p-id="19793"></path>
</svg>