<?xml version="1.0" standalone="no"?>
<!DOCTYPE svg PUBLIC "-//W3C//DTD SVG 1.1//EN" "http://www.w3.org/Graphics/SVG/1.1/DTD/svg11.dtd">
<svg t="1651311924138" class="icon" viewBox="0 0 1024 1024" version="1.1" xmlns="http://www.w3.org/2000/svg" p-id="17182" xmlns:xlink="http://www.w3.org/1999/xlink" width="48" height="48">
    <defs></defs>
    <path d="M639.01 630.204q185.447 0 185.447 185.446 0 185.447-185.447 185.447-185.446 0-185.446-185.447 0-185.446 185.446-185.446z" p-id="17183"></path>
    <path d="M493.33 536.986a263.27 263.27 0 1 0 0-526.507 263.27 263.27 0 0 0 0 526.507z m0-62.908a200.363 200.363 0 1 1 0-400.691 200.363 200.363 0 0 1 0 400.725z" p-id="17184"></path>
    <path d="M107.52 986.965v-64.17c0-213.06 172.715-385.81 385.81-385.81 213.06 0 385.774 172.715 385.774 385.776v64.204h62.908v-64.17c0-247.808-200.875-448.717-448.683-448.717S44.612 674.987 44.612 922.76v64.204h62.908z" p-id="17185"></path>
    <path d="M667.136 823.945l-109.295-92.946a31.47 31.47 0 1 0-40.755 47.958l152.883 129.98 306.654-298.121a31.47 31.47 0 0 0-43.861-45.09L667.136 823.945z" p-id="17186"></path>
</svg>